<?xml version="1.0" encoding="utf-8" ?>
<svg baseProfile="full" height="200mm" version="1.1" viewBox="0,0,200,200" width="200mm" xmlns="http://www.w3.org/2000/svg" xmlns:ev="http://www.w3.org/2001/xml-events" xmlns:xlink="http://www.w3.org/1999/xlink"><defs /><rect fill="#1a1a1a" height="200" width="200" x="0" y="0" /><text alignment-baseline="middle" fill="#e1ed5e" style="dominant-baseline: central; font-size:9.0px; font-family:Arial;" text-anchor="middle" x="100.0" y="100.0">2022</text><line stroke="#e1ed5e" stroke-width="0.3" x1="100.0" x2="100.0" y1="15.0" y2="10.0" /><path d="M 100.0 14.0 a86.0,86.0 0 0,1 42.46469731375804,11.215312516191453" fill="none" id="id97" stroke="none" /><text fill="#e1ed5e" style="font-size:6.75px; font-family:Arial;" text-anchor="middle"><textPath startOffset="22.20632615414155" xlink:href="#id97">January</textPath></text><path d="M 100.0 79.0 l 0.0 -50.394621231473266 a71.39462123147327,71.39462123147327 0 0,0 1.228941042868266,0.010577883546501254 l -0.8674605635957376 50.38715472453532" fill="#37ff78" stroke="none" /><path d="M 101.08401301168833 79.027996857942 l 1.9640305352823983 -37.997380209383486 a59.048105323655335,59.048105323655335 0 0,0 1.0146093973757426,0.06120400962778277 l -2.617801981497753 37.9579429303754" fill="#a3ff22" stroke="none" /><path d="M 101.44485096284872 79.0497635885617 l 2.619953614081287 -37.98914145012218 a59.07937794997876,59.07937794997876 0 0,0 1.0139422580734534,0.07870143372472696 l -3.2734860615170813 37.93841475420899" fill="#a2ff22" stroke="none" /><path d="M 101.80526077348638 79.07773832637324 l 3.222702907962518 -37.3498579967115 a58.488634363064016,58.488634363064016 0 0,0 1.0023138027653733,0.09518177292421662 l -3.8651418378181353 37.28885067927211" fill="#abff21" stroke="none" /><path d="M 102.16513564639614 79.11191278185805 l 3.927072602621836 -37.886326047089895 a59.08931084402375,59.08931084402375 0 0,0 1.010802281992247,0.11357541391896696 l -4.5786415881238085 37.81311467970033" fill="#a2ff22" stroke="none" /><path d="M 102.52436894288641 79.15227682838746 l 4.542801121856302 -37.51712303347442 a58.79115720299652,58.79115720299652 0 0,0 1.0036078072025765,0.13029709711182386 l -5.187923657566724 37.43336761319846" fill="#a7ff21" stroke="none" /><path d="M 103.2404852339499 79.25152402106235 l 5.920180279867943 -37.906273122588566 a59.36579305306248,59.36579305306248 0 0,0 1.008287835068145,0.16637613212979027 l -6.571797321074963 37.79875072751915" fill="#9eff22" stroke="none" /><path d="M 105.71112130821622 79.79150937346287 l 10.425820880775602 -36.891197397611336 a59.336121171390594,59.336121171390594 0 0,0 0.9804864042295521,0.2862308681021031 l -11.05929750272858 36.70626820059053" fill="#9eff22" stroke="none" /><line stroke="#e1ed5e" stroke-width="0.3" x1="143.23703022742887" x2="145.7803849466894" y1="26.81831364943548" y2="22.513508569990506" /><path d="M 143.74570117128098 25.957352633546492 a86.0,86.0 0 0,1 28.547481713284135,27.462654790039103" fill="none" id="id98" stroke="none" /><text fill="#e1ed5e" style="font-size:6.75px; font-family:Arial;" text-anchor="middle"><textPath startOffset="19.985693538727396" xlink:href="#id98">February</textPath></text><line stroke="#e1ed5e" stroke-width="0.3" x1="172.23445277983987" x2="176.4835382374775" y1="55.19839476539836" y2="52.563006222186495" /><path d="M 173.08426987136738 54.67131705675599 a86.0,86.0 0 0,1 12.851231095245387,41.99856678651699" fill="none" id="id99" stroke="none" /><text fill="#e1ed5e" style="font-size:6.75px; font-family:Arial;" text-anchor="middle"><textPath startOffset="22.20632615414155" xlink:href="#id99">March</textPath></text><path d="M 118.56541770881063 90.18545643968196 l 25.62930224163893 -13.548841572885717 a49.99020940525326,49.99020940525326 0 0,0 0.39561434464302486,0.7642009923335124 l -25.85872601944207 13.10566785829186" fill="#ffc412" stroke="none" /><path d="M 119.04729006885535 91.15688171328212 l 26.069851794929914 -12.103495158963783 a49.742508026834926,49.742508026834926 0 0,0 0.3538769260781549,0.7797208984490994 l -26.274331037971418 11.65295225167262" fill="#ffc011" stroke="none" /><path d="M 120.45610955862082 95.25157060432595 l 28.029355681348317 -6.506389500784983 a49.77460484954499,49.77460484954499 0 0,0 0.18654956125784722,0.8362651044258909 l -28.1371996296082 6.022946226809128" fill="#ffc011" stroke="none" /><path d="M 120.87857604477298 97.74499172005257 l 29.839141277009837 -3.222801713195566 a51.01267737193616,51.01267737193616 0 0,0 0.08677711725574726,0.8738337283316958 l -29.890195519947813 2.7086924541594355" fill="#ffd614" stroke="none" /><path d="M 120.98425023603335 99.18683210126433 l 62.95275070810006 -2.4395036962070047 a84.0,84.0 0 0,0 0.04355322217741975,1.4453194103000038 l -62.98541562473312 1.355514138482002" fill="#4dd2ff" stroke="none" /><line stroke="#e1ed5e" stroke-width="0.3" x1="184.98032266829074" x2="189.97916517819016" y1="98.17113171792111" y2="98.06355123074" /><path d="M 185.9800911702706 98.14961562048488 a86.0,86.0 0 0,1 -9.607161424134198,41.387399972396054" fill="none" id="id100" stroke="none" /><text fill="#e1ed5e" style="font-size:6.75px; font-family:Arial;" text-anchor="middle"><textPath startOffset="21.466115282336823" xlink:href="#id100">April</textPath></text><path d="M 120.81339534386255 102.79330883721812 l 61.78700809709387 8.292265288362614 a83.34096593094245,83.34096593094245 0 0,0 -0.20305807671665554,1.4201877156149616 l -61.63511596936061 -9.354598475957985" fill="#4cdaff" stroke="none" /><line stroke="#e1ed5e" stroke-width="0.3" x1="174.80103733775053" x2="179.2010983576182" y1="140.37084112569926" y2="142.7455964860345" /><path d="M 175.68104954172406 140.8457921977663 a86.0,86.0 0 0,1 -30.038265399797805,32.042727171017184" fill="none" id="id101" stroke="none" /><text fill="#e1ed5e" style="font-size:6.75px; font-family:Arial;" text-anchor="middle"><textPath startOffset="22.206326154141568" xlink:href="#id101">May</textPath></text><path d="M 118.48025628344425 109.97397251340804 l 43.76928526223104 23.62270530458498 a70.73713439949896,70.73713439949896 0 0,0 -0.5875345222415116,1.0665458188065784 l -43.35617433053802 -24.37262164178936" fill="#36ff6e" stroke="none" /><path d="M 113.75828350139079 115.86535959552629 l 15.956823195715211 18.400604841197328 a45.355748089952186,45.355748089952186 0 0,0 -0.5942348635819283,0.5064198423945693 l -15.637722855556236 -18.672549073814846" fill="#ff6e0a" stroke="none" /><path d="M 112.34349029814194 116.9893568818739 l 11.03756527829137 15.191905295060613 a39.77822765243392,39.77822765243392 0 0,0 -0.5574116830817676,0.3976984356807358 l -10.774426267360717 -15.379647992585568" fill="#ff0000" stroke="none" /><line stroke="#e1ed5e" stroke-width="0.3" x1="143.8653032363475" x2="146.44561519142675" y1="172.8068346515853" y2="177.08958963109032" /><path d="M 144.38136562736335 173.6633856474863 a86.0,86.0 0 0,1 -40.68145358897372,12.25698825130547" fill="none" id="id102" stroke="none" /><text fill="#e1ed5e" style="font-size:6.75px; font-family:Arial;" text-anchor="middle"><textPath startOffset="21.466115282336833" xlink:href="#id102">June</textPath></text><path d="M 109.57404056367764 118.69057910512821 l 8.64148534652673 16.87003145441263 a39.954504221084434,39.954504221084434 0 0,0 -0.6148162814055279,0.30828164687336734 l -8.349815157438442 -17.016280942195298" fill="#ff0400" stroke="none" /><line stroke="#e1ed5e" stroke-width="0.3" x1="102.19456741930631" x2="102.32365962044197" y1="184.97166512339345" y2="189.96999836594603" /><path d="M 102.22038585953345 185.97133177190398 a86.0,86.0 0 0,1 -42.740103519485714,-10.115201625700543" fill="none" id="id103" stroke="none" /><text fill="#e1ed5e" style="font-size:6.75px; font-family:Arial;" text-anchor="middle"><textPath startOffset="22.20632615414155" xlink:href="#id103">July</textPath></text><line stroke="#e1ed5e" stroke-width="0.3" x1="58.666819895761336" x2="56.23545636021788" y1="174.27360380694188" y2="178.64263932499728" /><path d="M 58.180547188652646 175.14741091055294 a86.0,86.0 0 0,1 -31.652253787137756,-30.449443065178592" fill="none" id="id104" stroke="none" /><text fill="#e1ed5e" style="font-size:6.75px; font-family:Arial;" text-anchor="middle"><textPath startOffset="22.20632615414155" xlink:href="#id104">August</textPath></text><line stroke="#e1ed5e" stroke-width="0.3" x1="26.63291911575756" x2="22.317208475507996" y1="142.92168965132927" y2="145.44649492493687" /><path d="M 25.769776987707644 143.4266507060508 a86.0,86.0 0 0,1 -11.730757126820373,-40.83630448921669" fill="none" id="id105" stroke="none" /><text fill="#e1ed5e" style="font-size:6.75px; font-family:Arial;" text-anchor="middle"><textPath startOffset="21.46611528233685" xlink:href="#id105">September</textPath></text><line stroke="#e1ed5e" stroke-width="0.3" x1="15.007084014347285" x2="10.007500721073583" y1="101.09737516637583" y2="101.16192664675087" /><path d="M 14.007167355692545 101.11028546245083 a86.0,86.0 0 0,1 10.666146001902534,-42.60595125391555" fill="none" id="id106" stroke="none" /><text fill="#e1ed5e" style="font-size:6.75px; font-family:Arial;" text-anchor="middle"><textPath startOffset="22.20632615414155" xlink:href="#id106">October</textPath></text><line stroke="#e1ed5e" stroke-width="0.3" x1="26.266209847984243" x2="21.928928074336255" y1="57.711370442889674" y2="55.22380399835377" /><path d="M 25.398753493254645 57.213857153982495 a86.0,86.0 0 0,1 29.58750427330803,-30.492523968695096" fill="none" id="id107" stroke="none" /><text fill="#e1ed5e" style="font-size:6.75px; font-family:Arial;" text-anchor="middle"><textPath startOffset="21.46611528233685" xlink:href="#id107">November</textPath></text><line stroke="#e1ed5e" stroke-width="0.3" x1="56.762969772571076" x2="54.21961505331055" y1="26.818313649435495" y2="22.513508569990535" /><path d="M 56.25429882871897 25.957352633546506 a86.0,86.0 0 0,1 42.265352541879196,-11.944610805530505" fill="none" id="id108" stroke="none" /><text fill="#e1ed5e" style="font-size:6.75px; font-family:Arial;" text-anchor="middle"><textPath startOffset="22.20632615414155" xlink:href="#id108">December</textPath></text></svg>