<?xml version="1.0" encoding="utf-8" ?>
<svg baseProfile="full" height="200mm" version="1.1" viewBox="0,0,200,200" width="200mm" xmlns="http://www.w3.org/2000/svg" xmlns:ev="http://www.w3.org/2001/xml-events" xmlns:xlink="http://www.w3.org/1999/xlink"><defs /><rect fill="#1a1a1a" height="200" width="200" x="0" y="0" /><text alignment-baseline="middle" fill="#e1ed5e" style="dominant-baseline: central; font-size:9.0px; font-family:Arial;" text-anchor="middle" x="100.0" y="100.0">2022</text><line stroke="#e1ed5e" stroke-width="0.3" x1="100.0" x2="100.0" y1="15.0" y2="10.0" /><path d="M 100.0 14.0 a86.0,86.0 0 0,1 42.46469731375804,11.215312516191453" fill="none" id="id97" stroke="none" /><text fill="#e1ed5e" style="font-size:6.75px; font-family:Arial;" text-anchor="middle"><textPath startOffset="22.20632615414155" xlink:href="#id97">January</textPath></text><path d="M 100.0 79.0 l 0.0 -50.394621231473266 a71.39462123147327,71.39462123147327 0 0,0 1.228941042868266,0.010577883546501254 l -0.8674605635957376 50.38715472453532" fill="#3aff97" stroke="none" /><path d="M 101.08401301168833 79.027996857942 l 1.9640305352823983 -37.997380209383486 a59.048105323655335,59.048105323655335 0 0,0 1.0146093973757426,0.06120400962778277 l -2.617801981497753 37.9579429303754" fill="#68ff28" stroke="none" /><path d="M 101.44485096284872 79.0497635885617 l 2.619953614081287 -37.98914145012218 a59.07937794997876,59.07937794997876 0 0,0 1.0139422580734534,0.07870143372472696 l -3.2734860615170813 37.93841475420899" fill="#68ff28" stroke="none" /><path d="M 101.80526077348638 79.07773832637324 l 3.222702907962518 -37.3498579967115 a58.488634363064016,58.488634363064016 0 0,0 1.0023138027653733,0.09518177292421662 l -3.8651418378181353 37.28885067927211" fill="#6fff27" stroke="none" /><path d="M 102.16513564639614 79.11191278185805 l 3.927072602621836 -37.886326047089895 a59.08931084402375,59.08931084402375 0 0,0 1.010802281992247,0.11357541391896696 l -4.5786415881238085 37.81311467970033" fill="#68ff28" stroke="none" /><path d="M 102.52436894288641 79.15227682838746 l 4.542801121856302 -37.51712303347442 a58.79115720299652,58.79115720299652 0 0,0 1.0036078072025765,0.13029709711182386 l -5.187923657566724 37.43336761319846" fill="#6bff28" stroke="none" /><path d="M 103.2404852339499 79.25152402106235 l 5.920180279867943 -37.906273122588566 a59.36579305306248,59.36579305306248 0 0,0 1.008287835068145,0.16637613212979027 l -6.571797321074963 37.79875072751915" fill="#64ff29" stroke="none" /><path d="M 105.71112130821622 79.79150937346287 l 10.425820880775602 -36.891197397611336 a59.336121171390594,59.336121171390594 0 0,0 0.9804864042295521,0.2862308681021031 l -11.05929750272858 36.70626820059053" fill="#65ff29" stroke="none" /><line stroke="#e1ed5e" stroke-width="0.3" x1="143.23703022742887" x2="145.7803849466894" y1="26.81831364943548" y2="22.513508569990506" /><path d="M 143.74570117128098 25.957352633546492 a86.0,86.0 0 0,1 28.547481713284135,27.462654790039103" fill="none" id="id98" stroke="none" /><text fill="#e1ed5e" style="font-size:6.75px; font-family:Arial;" text-anchor="middle"><textPath startOffset="19.985693538727396" xlink:href="#id98">February</textPath></text><line stroke="#e1ed5e" stroke-width="0.3" x1="172.23445277983987" x2="176.4835382374775" y1="55.19839476539836" y2="52.563006222186495" /><path d="M 173.08426987136738 54.67131705675599 a86.0,86.0 0 0,1 12.851231095245387,41.99856678651699" fill="none" id="id99" stroke="none" /><text fill="#e1ed5e" style="font-size:6.75px; font-family:Arial;" text-anchor="middle"><textPath startOffset="22.20632615414155" xlink:href="#id99">March</textPath></text><path d="M 118.56541770881063 90.18545643968196 l 25.62930224163893 -13.548841572885717 a49.99020940525326,49.99020940525326 0 0,0 0.39561434464302486,0.7642009923335124 l -25.85872601944207 13.10566785829186" fill="#dfff1b" stroke="none" /><path d="M 119.04729006885535 91.15688171328212 l 26.069851794929914 -12.103495158963783 a49.742508026834926,49.742508026834926 0 0,0 0.3538769260781549,0.7797208984490994 l -26.274331037971418 11.65295225167262" fill="#e3ff1b" stroke="none" /><path d="M 120.45610955862082 95.25157060432595 l 28.029355681348317 -6.506389500784983 a49.77460484954499,49.77460484954499 0 0,0 0.18654956125784722,0.8362651044258909 l -28.1371996296082 6.022946226809128" fill="#e2ff1b" stroke="none" /><path d="M 120.87857604477298 97.74499172005257 l 29.839141277009837 -3.222801713195566 a51.01267737193616,51.01267737193616 0 0,0 0.08677711725574726,0.8738337283316958 l -29.890195519947813 2.7086924541594355" fill="#d1ff1c" stroke="none" /><path d="M 120.98425023603335 99.18683210126433 l 62.95275070810006 -2.4395036962070047 a84.0,84.0 0 0,0 0.04355322217741975,1.4453194103000038 l -62.98541562473312 1.355514138482002" fill="#4dd2ff" stroke="none" /><line stroke="#e1ed5e" stroke-width="0.3" x1="184.98032266829074" x2="189.97916517819016" y1="98.17113171792111" y2="98.06355123074" /><path d="M 185.9800911702706 98.14961562048488 a86.0,86.0 0 0,1 -9.607161424134198,41.387399972396054" fill="none" id="id100" stroke="none" /><text fill="#e1ed5e" style="font-size:6.75px; font-family:Arial;" text-anchor="middle"><textPath startOffset="21.466115282336823" xlink:href="#id100">April</textPath></text><path d="M 120.81339534386255 102.79330883721812 l 61.78700809709387 8.292265288362614 a83.34096593094245,83.34096593094245 0 0,0 -0.20305807671665554,1.4201877156149616 l -61.63511596936061 -9.354598475957985" fill="#4cd9ff" stroke="none" /><line stroke="#e1ed5e" stroke-width="0.3" x1="174.80103733775053" x2="179.2010983576182" y1="140.37084112569926" y2="142.7455964860345" /><path d="M 175.68104954172406 140.8457921977663 a86.0,86.0 0 0,1 -30.038265399797805,32.042727171017184" fill="none" id="id101" stroke="none" /><text fill="#e1ed5e" style="font-size:6.75px; font-family:Arial;" text-anchor="middle"><textPath startOffset="22.206326154141568" xlink:href="#id101">May</textPath></text><path d="M 118.48025628344425 109.97397251340804 l 43.76928526223104 23.62270530458498 a70.73713439949896,70.73713439949896 0 0,0 -0.5875345222415116,1.0665458188065784 l -43.35617433053802 -24.37262164178936" fill="#39ff8e" stroke="none" /><path d="M 113.75828350139079 115.86535959552629 l 15.956823195715211 18.400604841197328 a45.355748089952186,45.355748089952186 0 0,0 -0.5942348635819283,0.5064198423945693 l -15.637722855556236 -18.672549073814846" fill="#ffdc14" stroke="none" /><path d="M 112.34349029814194 116.9893568818739 l 11.03756527829137 15.191905295060613 a39.77822765243392,39.77822765243392 0 0,0 -0.5574116830817676,0.3976984356807358 l -10.774426267360717 -15.379647992585568" fill="#ff870c" stroke="none" /><line stroke="#e1ed5e" stroke-width="0.3" x1="143.8653032363475" x2="146.44561519142675" y1="172.8068346515853" y2="177.08958963109032" /><path d="M 144.38136562736335 173.6633856474863 a86.0,86.0 0 0,1 -40.68145358897372,12.25698825130547" fill="none" id="id102" stroke="none" /><text fill="#e1ed5e" style="font-size:6.75px; font-family:Arial;" text-anchor="middle"><textPath startOffset="21.466115282336833" xlink:href="#id102">June</textPath></text><path d="M 109.57404056367764 118.69057910512821 l 8.64148534652673 16.87003145441263 a39.954504221084434,39.954504221084434 0 0,0 -0.6148162814055279,0.30828164687336734 l -8.349815157438442 -17.016280942195298" fill="#ff890c" stroke="none" /><path d="M 107.59598834532513 119.57807347666477 l 14.940071000342835 38.50687948610603 a62.303577196809215,62.303577196809215 0 0,0 -1.003175943019156,0.3793153032966032 l -14.275024836563405 -38.75834303950926" fill="#41ff2d" stroke="none" /><path d="M 107.2578585660854 119.70592522655815 l 10.059155113025577 27.31176926289246 a50.105314666867734,50.105314666867734 0 0,0 -0.8118980233155784,0.29111774521290873 l -9.587537529080263 -27.48087454914533" fill="#deff1b" stroke="none" /><path d="M 106.57524785965236 119.94407469862006 l 6.253051608744161 18.966787418674343 a40.97097091797996,40.97097091797996 0 0,0 -0.6716871789504925,0.21505302351794667 l -5.925643084702728 -19.071613288852" fill="#ff990e" stroke="none" /><path d="M 106.2309692047433 120.05430185196036 l 9.106087425407056 29.307836376472153 a51.68990226881182,51.68990226881182 0 0,0 -0.8519604163796993,0.2566886847173409 l -8.60025203458711 -29.460240430295222" fill="#c8ff1d" stroke="none" /><path d="M 105.18746579009965 120.34920634021253 l 10.032240750650727 39.35411728002131 a61.61271231238674,61.61271231238674 0 0,0 -1.0299495369202323,0.25313653762725724 l -9.353337928987283 -39.5209750759626" fill="#49ff2c" stroke="none" /><path d="M 104.48393922423573 120.51570834832081 l 4.6583400810662114 21.31365786001191 a42.81678582386772,42.81678582386772 0 0,0 -0.7213783056492362,0.151171837778686 l -4.290770313987597 -21.390685678517137" fill="#ffb610" stroke="none" /><path d="M 103.7750983002368 120.6578951692458 l 5.354293292391229 29.2994832830381 a50.784697032435545,50.784697032435545 0 0,0 -0.861286765789631,0.14974574426802134 l -4.849157555129548 -29.387307605827125" fill="#d4ff1c" stroke="none" /><path d="M 102.34483914955558 120.86867818915974 l 2.750161674048962 24.475981200998806 a45.63000294326119,45.63000294326119 0 0,0 -0.7812886511993873,0.08098376319337844 l -2.3284404262439717 -24.519694332647944" fill="#ffe015" stroke="none" /><path d="M 101.98527174616119 120.90594882070398 l 2.8279605518740887 29.779902262130534 a50.91387536955055,50.91387536955055 0 0,0 -0.8731867390544094,0.07534222602379646 l -2.314929495078138 -29.824168740432995" fill="#d2ff1c" stroke="none" /><path d="M 101.62511606390274 120.93702456842531 l 2.3603217214386683 30.40897506881523 a51.50044070770981,51.50044070770981 0 0,0 -0.8844274645474693,0.06099529612103055 l -1.8365314961122685 -30.445098709452548" fill="#caff1d" stroke="none" /><path d="M 101.26447882468166 120.96189622390904 l 1.2945314401458965 21.460093421301327 a42.49910280222193,42.49910280222193 0 0,0 -0.7306039615868686,0.037763879558214676 l -0.9249394101455483 -21.479197107621744" fill="#ffb110" stroke="none" /><line stroke="#e1ed5e" stroke-width="0.3" x1="102.19456741930631" x2="102.32365962044197" y1="184.97166512339345" y2="189.96999836594603" /><path d="M 102.22038585953345 185.97133177190398 a86.0,86.0 0 0,1 -42.740103519485714,-10.115201625700543" fill="none" id="id103" stroke="none" /><text fill="#e1ed5e" style="font-size:6.75px; font-family:Arial;" text-anchor="middle"><textPath startOffset="22.20632615414155" xlink:href="#id103">July</textPath></text><path d="M 99.09653310690486 120.98055641714683 l -0.8677173262883994 20.150370154639987 a41.16904436822298,41.16904436822298 0 0,0 -0.7077388680449025,-0.036582015396501175 l 1.2144442627467908 -20.13244833248128" fill="#ff9c0e" stroke="none" /><path d="M 98.37488393609728 120.93702456842531 l -3.895660092334613 50.18935747122511 a71.34031953543231,71.34031953543231 0 0,0 -1.2235057835628593,-0.10556922724964928 l 4.759010193639014 -50.114863991696794" fill="#3aff96" stroke="none" /><path d="M 97.65516085044442 120.86867818915974 l -2.4944842503504647 22.200494681418768 a43.340197308326296,43.340197308326296 0 0,0 -0.7406480139762046,-0.08968215995106615 l 2.8762596873780586 -22.154266992742354" fill="#ffbe11" stroke="none" /><path d="M 96.93821686468263 120.77559828337769 l -3.2672276787512815 22.169633430629435 a43.409092421454304,43.409092421454304 0 0,0 -0.7382938574403234,-0.11530631675212592 l 3.6483573998001217 -22.110108806530203" fill="#ffbf11" stroke="none" /><path d="M 96.58105272829116 120.7198165907248 l -3.330553518524565 20.184124692549176 a41.45706421616087,41.45706421616087 0 0,0 -0.703094098111189,-0.12224192126717191 l 3.6774965881078043 -20.123804192760996" fill="#ffa10e" stroke="none" /><path d="M 95.16358092515715 120.4354850818985 l -9.427383626608526 39.833842866305496 a61.93422284031741,61.93422284031741 0 0,0 -1.035324070955974,-0.25445746733147867 l 10.11166098230771 -39.665664140659985" fill="#45ff2d" stroke="none" /><line stroke="#e1ed5e" stroke-width="0.3" x1="58.666819895761336" x2="56.23545636021788" y1="174.27360380694188" y2="178.64263932499728" /><path d="M 58.180547188652646 175.14741091055294 a86.0,86.0 0 0,1 -31.652253787137756,-30.449443065178592" fill="none" id="id104" stroke="none" /><text fill="#e1ed5e" style="font-size:6.75px; font-family:Arial;" text-anchor="middle"><textPath startOffset="22.20632615414155" xlink:href="#id104">August</textPath></text><path d="M 85.44109423537348 115.13401014063109 l -21.03990480887361 21.871020932703626 a51.348297332885465,51.348297332885465 0 0,0 -0.6317064314939447,-0.6182576997962562 l 21.41326119274335 -21.5056131299848" fill="#ccff1d" stroke="none" /><path d="M 85.18274418774928 114.88116024355367 l -22.40506598187628 22.501695412994877 a52.75394901601098,52.75394901601098 0 0,0 -0.6379695199027816,-0.6462597554489612 l 22.789076126834594 -22.112695163565252" fill="#b9ff1f" stroke="none" /><path d="M 84.67929136418377 114.36230785411682 l -21.274491778067677 19.943646708493556 a50.160813507998625,50.160813507998625 0 0,0 -0.58509864031622,-0.6350090156783439 l 21.614636826379627 -19.574486438013867" fill="#ddff1b" stroke="none" /><path d="M 83.95833913139862 113.55231037782056 l -11.252930860099326 9.506697150961374 a35.731114813966826,35.731114813966826 0 0,0 -0.3928789208956314,-0.4732479693466952 l 11.414905780888494 -9.311587924500918" fill="#ff4506" stroke="none" /><path d="M 83.72743513129214 113.27417163493432 l -24.042112370594957 19.61209733367601 a52.02672282188205,52.02672282188205 0 0,0 -0.5601100059292434,-0.6988233532472226 l 24.37614028857906 -19.19534614685053" fill="#c3ff1e" stroke="none" /><path d="M 83.06392112726016 112.41649034213515 l -25.20377967086812 18.477859557701137 a52.25158881611929,52.25158881611929 0 0,0 -0.5255519732592906,-0.7299457247825974 l 25.518111436503016 -18.0412802274674" fill="#c0ff1e" stroke="none" /><path d="M 82.85270091963577 112.12312394758628 l -39.98045812020389 28.266145414559297 a69.96337414944347,69.96337414944347 0 0,0 -0.686770784716309,-0.9893445371693583 l 40.461089812082335 -27.573759615202928" fill="#38ff84" stroke="none" /><path d="M 82.24976979558568 111.22182372390057 l -16.502735200587928 10.43314837331807 a40.52410955921917,40.52410955921917 0 0,0 -0.3676798008095742,-0.5928169107022903 l 16.679879641065458 -10.147535131250516" fill="#ff920d" stroke="none" /><line stroke="#e1ed5e" stroke-width="0.3" x1="26.63291911575756" x2="22.317208475507996" y1="142.92168965132927" y2="145.44649492493687" /><path d="M 25.769776987707644 143.4266507060508 a86.0,86.0 0 0,1 -11.730757126820373,-40.83630448921669" fill="none" id="id105" stroke="none" /><text fill="#e1ed5e" style="font-size:6.75px; font-family:Arial;" text-anchor="middle"><textPath startOffset="21.46611528233685" xlink:href="#id105">September</textPath></text><path d="M 81.87401531095188 110.60418214915194 l -9.200754146820024 5.38268538543978 a31.65960500341607,31.65960500341607 0 0,0 -0.27113889345088527,-0.47275351509696795 l 9.292045036423287 -5.2235120244845055" fill="#ff0000" stroke="none" /><path d="M 81.69416730710424 110.29060199501025 l -27.933689068651667 15.702889963012714 a53.04483949366255,53.04483949366255 0 0,0 -0.4405843506929819,-0.7997885728832896 l 28.199849828796165 -15.219730871731603" fill="#b5ff1f" stroke="none" /><path d="M 81.51974371655577 109.97397251340807 l -34.39827601619407 18.565081253851588 a60.08840793442966,60.08840793442966 0 0,0 -0.4834183716800831,-0.9144453782487333 l 34.712746896099034 -17.97022086051673" fill="#5cff2a" stroke="none" /><path d="M 81.35079622478065 109.6543875284942 l -11.055393809504245 5.723196411146209 a33.44896419160171,33.44896419160171 0 0,0 -0.26029877249824207,-0.5135941726899845 l 11.152271251788754 -5.5320480267535395" fill="#ff1f03" stroke="none" /><path d="M 79.58551787078972 104.9243191809786 l -28.097534412519245 6.777601644266017 a49.903413710339834,49.903413710339834 0 0,0 -0.19424175213412154,-0.8367883844148349 l 28.210036730583923 -6.292944602502608" fill="#e0ff1b" stroke="none" /><path d="M 79.4281124754447 104.21870165774334 l -29.129691175577065 5.973660720498961 a50.73589632730321,50.73589632730321 0 0,0 -0.1680809384776249,-0.8570410841435323 l 29.228202047030358 -5.471355909287473" fill="#d5ff1c" stroke="none" /><line stroke="#e1ed5e" stroke-width="0.3" x1="15.007084014347285" x2="10.007500721073583" y1="101.09737516637583" y2="101.16192664675087" /><path d="M 14.007167355692545 101.11028546245083 a86.0,86.0 0 0,1 10.666146001902534,-42.60595125391555" fill="none" id="id106" stroke="none" /><text fill="#e1ed5e" style="font-size:6.75px; font-family:Arial;" text-anchor="middle"><textPath startOffset="22.20632615414155" xlink:href="#id106">October</textPath></text><line stroke="#e1ed5e" stroke-width="0.3" x1="26.266209847984243" x2="21.928928074336255" y1="57.711370442889674" y2="55.22380399835377" /><path d="M 25.398753493254645 57.213857153982495 a86.0,86.0 0 0,1 29.58750427330803,-30.492523968695096" fill="none" id="id107" stroke="none" /><text fill="#e1ed5e" style="font-size:6.75px; font-family:Arial;" text-anchor="middle"><textPath startOffset="21.46611528233685" xlink:href="#id107">November</textPath></text><line stroke="#e1ed5e" stroke-width="0.3" x1="56.762969772571076" x2="54.21961505331055" y1="26.818313649435495" y2="22.513508569990535" /><path d="M 56.25429882871897 25.957352633546506 a86.0,86.0 0 0,1 42.265352541879196,-11.944610805530505" fill="none" id="id108" stroke="none" /><text fill="#e1ed5e" style="font-size:6.75px; font-family:Arial;" text-anchor="middle"><textPath startOffset="22.20632615414155" xlink:href="#id108">December</textPath></text></svg>